<svg xmlns="http://www.w3.org/2000/svg" version="1.1" xmlns:xlink="http://www.w3.org/1999/xlink" xmlns:svgjs="http://svgjs.dev/svgjs" width="2000" height="636" viewBox="0 0 2000 636"><g transform="matrix(1,0,0,1,-1.2116879411873924,-0.07516052292373843)"><svg viewBox="0 0 396 126" data-background-color="#ffffff" preserveAspectRatio="xMidYMid meet" height="636" width="2000" xmlns="http://www.w3.org/2000/svg" xmlns:xlink="http://www.w3.org/1999/xlink"><g id="tight-bounds" transform="matrix(1,0,0,1,0.2400857876449436,0.014908368265338368)"><svg viewBox="0 0 395.52 125.97020133945732" height="125.97020133945732" width="395.52"><g><svg viewBox="0 0 395.52 125.97020133945732" height="125.97020133945732" width="395.52"><g><svg viewBox="0 0 592.9841990570258 188.86109159165244" height="125.97020133945732" width="395.52"><g><svg viewBox="0 0 395.52 188.86109159165244" height="188.86109159165244" width="395.52"><g id="textblocktransform"><svg viewBox="0 0 395.52 188.86109159165244" height="188.86109159165244" width="395.52" id="textblock"><g><svg viewBox="0 0 395.52 143.09774453797394" height="143.09774453797394" width="395.52"><path d="M394.594 30.692C392.735 15.838 387.435 11.709 387.435 11.709 371.165-3.59 350.86-0.293 332.619 1.906 300.414 1.995 268.339 5.263 236.208 7.015 168.767 7.283 100.749 2.886 33.643 13.729 27.339 17.056-6.54 14.383 1.121 32.593 3.129 40.168 10.456 48.575 10.232 55.527 11.236 56.745 12.631 53.952 13.226 55.705 15.309 60.428 18.711 58.2 21.501 60.993 17.614 68.449 20.403 74.658 23.062 81.164 18.377 82.857 12.371 82.055 9.675 87.67 9.396 91.74 7.89 90.967 6.235 90.789 5.026 90.67 2.59 91.116 2.999 92.393 4.394 96.76-1.594 99.285 2.162 103.563-0.422 108.197 3.948 112.208 3.353 117.228 3.278 118.238 3.687 119.1 4.338 119.337 7.22 120.615 3.018 123.11 3.464 125.814 33.029 144.291 65.104 131.517 95.394 140.013 103.259 134.072 97.346 142.123 100.489 140.875 102.943 139.419 104.728 145.45 107.499 142.034 107.927 141.053 107.276 138.736 108.8 139.182 109.6 139.419 110.307 139.36 110.418 137.993 110.586 135.944 109.117 137.221 108.726 136.152 112.947 130.745 111.906 143.608 115.866 143.073 115.68 141.499 114.528 139.241 116.889 139.538 119.232 137.28 119.306 135.409 121.389 140.489 121.463 141.588 121.835 142.36 122.43 142.895 128.938 137.37 135.409 144.856 142.233 142.36 146.417 139.627 150.433 143.846 154.672 142.806 156.16 141.974 157.666 140.489 159.098 142.984 176.632 143.519 195.319 141.291 211.943 143.073 256.364 139.746 303.836 144.44 350.674 140.043 361.719 138.35 373.192 135.944 383.958 134.013 383.958 134.013 392.679 128.725 392.679 104.959S394.538 84.164 394.817 65.241C395.096 46.318 396.398 45.545 394.538 30.692Z" opacity="1" fill="#1d597d" data-fill-palette-color="tertiary"></path><g transform="matrix(1,0,0,1,55.76832,26.068561146666674)"><svg width="283.98335999999995" viewBox="1.34 -35.5 116.14999999999999 37.21" height="90.96062224464059" data-palette-color="#ffffff"><path d="M27.49-9.69L31.2-3.59Q28.76-1.49 25.73-0.37 22.71 0.76 19.46 0.76L19.46 0.76Q16.97 0.76 14.66 0.11 12.35-0.54 10.34-1.72 8.33-2.91 6.67-4.57 5-6.23 3.82-8.24 2.64-10.25 1.99-12.56 1.34-14.87 1.34-17.36L1.34-17.36Q1.34-19.85 1.99-22.17 2.64-24.49 3.82-26.5 5-28.52 6.67-30.18 8.33-31.84 10.34-33.02 12.35-34.2 14.66-34.85 16.97-35.5 19.46-35.5L19.46-35.5Q22.71-35.5 25.73-34.39 28.76-33.28 31.2-31.15L31.2-31.15 27.49-25.05Q25.95-26.71 23.85-27.6 21.75-28.49 19.46-28.49L19.46-28.49Q17.14-28.49 15.11-27.61 13.09-26.73 11.57-25.23 10.06-23.73 9.18-21.69 8.3-19.65 8.3-17.36L8.3-17.36Q8.3-15.06 9.18-13.05 10.06-11.04 11.57-9.52 13.09-8.01 15.11-7.13 17.14-6.25 19.46-6.25L19.46-6.25Q21.75-6.25 23.85-7.14 25.95-8.03 27.49-9.69L27.49-9.69ZM42.75-2.49L42.75-2.49Q42.75-1.61 42.43-0.84 42.11-0.07 41.55 0.49 40.99 1.05 40.23 1.38 39.48 1.71 38.6 1.71L38.6 1.71Q37.74 1.71 36.97 1.38 36.2 1.05 35.63 0.49 35.06-0.07 34.73-0.84 34.4-1.61 34.4-2.49L34.4-2.49Q34.4-3.34 34.73-4.1 35.06-4.86 35.63-5.42 36.2-5.98 36.97-6.31 37.74-6.64 38.6-6.64L38.6-6.64Q39.48-6.64 40.23-6.31 40.99-5.98 41.55-5.42 42.11-4.86 42.43-4.1 42.75-3.34 42.75-2.49ZM55-13.99L69.01-13.99 69.01-21Q69.01-22.44 68.46-23.72 67.91-25 66.96-25.95 66.01-26.9 64.73-27.45 63.45-28 62.01-28L62.01-28Q60.57-28 59.28-27.45 58-26.9 57.05-25.95 56.1-25 55.55-23.72 55-22.44 55-21L55-21 55-13.99ZM76.02-21L76.02 0 69.01 0 69.01-7.01 55-7.01 55 0 48.02 0 48.02-21Q48.02-23.9 49.12-26.45 50.21-29 52.11-30.91 54-32.81 56.55-33.91 59.1-35.01 62.01-35.01L62.01-35.01Q64.91-35.01 67.46-33.91 70.01-32.81 71.92-30.91 73.82-29 74.92-26.45 76.02-23.9 76.02-21L76.02-21ZM89.59-2.49L89.59-2.49Q89.59-1.61 89.27-0.84 88.96-0.07 88.4 0.49 87.83 1.05 87.08 1.38 86.32 1.71 85.44 1.71L85.44 1.71Q84.59 1.71 83.82 1.38 83.05 1.05 82.48 0.49 81.9-0.07 81.57-0.84 81.24-1.61 81.24-2.49L81.24-2.49Q81.24-3.34 81.57-4.1 81.9-4.86 82.48-5.42 83.05-5.98 83.82-6.31 84.59-6.64 85.44-6.64L85.44-6.64Q86.32-6.64 87.08-6.31 87.83-5.98 88.4-5.42 88.96-4.86 89.27-4.1 89.59-3.34 89.59-2.49ZM107-28L107 0 100.01 0 100.01-28 89.49-28 89.49-35.01 117.49-35.01 117.49-28 107-28Z" opacity="1" transform="matrix(1,0,0,1,0,0)" fill="#ffffff" class="wordmark-text-0" data-fill-palette-color="quaternary" id="text-0"></path></svg></g></svg></g><g transform="matrix(1,0,0,1,75.54432000000001,164.5713643949997)"><svg viewBox="0 0 244.43135999999996 24.289727196652716" height="24.289727196652716" width="244.43135999999996"><g transform="matrix(1,0,0,1,0,0)"><svg width="244.43135999999996" viewBox="1.5 -36.5 477.95 47.5" height="24.289727196652716" data-palette-color="#1d597d"><path d="M23.9 0L19.4 0Q15.4-0.05 12.1-1.43 8.8-2.8 6.43-5.2 4.05-7.6 2.78-10.75 1.5-13.9 1.5-17.5L1.5-17.5Q1.5-21.1 2.78-24.25 4.05-27.4 6.43-29.8 8.8-32.2 12.1-33.58 15.4-34.95 19.4-35L19.4-35 23.9-35 23.9-30.75 19.55-30.75Q16.7-30.75 14.3-29.73 11.9-28.7 10.13-26.93 8.35-25.15 7.35-22.75 6.35-20.35 6.35-17.5L6.35-17.5Q6.35-14.7 7.35-12.28 8.35-9.85 10.13-8.08 11.9-6.3 14.3-5.3 16.7-4.3 19.55-4.25L19.55-4.25 23.9-4.25 23.9 0ZM33.8 0L29.2 0 29.2-18.25Q29.2-21.65 31.12-23.58 33.05-25.5 36.45-25.5L36.45-25.5 41.7-25.5 41.7-21.55 37.3-21.55Q35.65-21.55 34.72-20.6 33.8-19.65 33.8-17.95L33.8-17.95 33.8 0ZM60.2 10.15L55.59 10.15 55.59 0.4Q52.8 0 50.62-1.48 48.45-2.95 47.2-5.33 45.95-7.7 45.95-10.75L45.95-10.75 45.95-25.5 50.59-25.5 50.59-10.8Q50.59-8.5 51.59-6.83 52.59-5.15 54.27-4.25 55.95-3.35 57.84-3.35L57.84-3.35Q59.8-3.35 61.47-4.25 63.15-5.15 64.17-6.83 65.2-8.5 65.2-10.8L65.2-10.8 65.2-25.5 69.8-25.5 69.8-10.75Q69.8-7.7 68.57-5.35 67.34-3 65.17-1.53 63-0.05 60.2 0.4L60.2 0.4 60.2 10.15ZM89.99-26.1L89.99-26.1Q86.29-26.1 83.34-24.5 80.39-22.9 78.67-19.88 76.94-16.85 76.94-12.6L76.94-12.6 76.94 11 81.54 11 81.54-4.55 81.64-4.55Q82.49-3 83.87-1.85 85.24-0.7 87.02-0.05 88.79 0.6 90.74 0.6L90.74 0.6Q94.29 0.6 97.09-1 99.89-2.6 101.52-5.53 103.14-8.45 103.14-12.45L103.14-12.45Q103.14-15.6 102.17-18.13 101.19-20.65 99.44-22.45 97.69-24.25 95.29-25.18 92.89-26.1 89.99-26.1ZM89.99-22.15L89.99-22.15Q92.34-22.15 94.27-21 96.19-19.85 97.34-17.75 98.49-15.65 98.49-12.75L98.49-12.75Q98.49-9.95 97.37-7.85 96.24-5.75 94.34-4.55 92.44-3.35 90.04-3.35L90.04-3.35Q87.69-3.35 85.77-4.5 83.84-5.65 82.72-7.78 81.59-9.9 81.59-12.8L81.59-12.8Q81.59-15.65 82.72-17.75 83.84-19.85 85.77-21 87.69-22.15 89.99-22.15ZM122.74 0L116.74 0Q113.34 0 111.42-1.95 109.49-3.9 109.49-7.25L109.49-7.25 109.49-31.9 114.09-31.9 114.09-7.55Q114.09-5.9 115.02-4.93 115.94-3.95 117.59-3.95L117.59-3.95 122.74-3.95 122.74 0ZM122.84-21.55L105.09-21.55 105.09-25.5 122.84-25.5 122.84-21.55ZM139.59 0.6L139.59 0.6Q135.69 0.6 132.69-1.18 129.69-2.95 127.94-5.98 126.19-9 126.19-12.75L126.19-12.75Q126.19-16.5 127.94-19.53 129.69-22.55 132.69-24.33 135.69-26.1 139.59-26.1L139.59-26.1Q143.49-26.1 146.51-24.33 149.54-22.55 151.26-19.53 152.99-16.5 152.99-12.75L152.99-12.75Q152.99-9 151.26-5.98 149.54-2.95 146.51-1.18 143.49 0.6 139.59 0.6ZM139.59-3.35L139.59-3.35Q142.24-3.35 144.19-4.6 146.14-5.85 147.24-7.98 148.34-10.1 148.34-12.75L148.34-12.75Q148.34-15.4 147.24-17.53 146.14-19.65 144.19-20.9 142.24-22.15 139.59-22.15L139.59-22.15Q136.99-22.15 135.01-20.9 133.04-19.65 131.94-17.53 130.84-15.4 130.84-12.75L130.84-12.75Q130.84-10.1 131.94-7.98 133.04-5.85 135.01-4.6 136.99-3.35 139.59-3.35ZM172.13 0L167.08 0 178.98-31.65Q179.78-33.7 181.18-34.65 182.58-35.6 184.43-35.6L184.43-35.6Q186.28-35.6 187.71-34.68 189.13-33.75 189.88-31.7L189.88-31.7 201.83 0 196.58 0 193.53-8.45 175.23-8.45 172.13 0ZM183.13-30.05L176.73-12.7 192.08-12.7 185.83-30.05Q185.58-30.7 185.28-31.05 184.98-31.4 184.43-31.4L184.43-31.4Q183.93-31.4 183.63-31.05 183.33-30.7 183.13-30.05L183.13-30.05ZM217.98 0L205.23 0 205.23-3.95 217.43-3.95Q218.63-3.95 219.5-4.48 220.38-5 220.83-5.85 221.28-6.7 221.28-7.65L221.28-7.65Q221.28-8.55 220.88-9.33 220.48-10.1 219.66-10.58 218.83-11.05 217.68-11.05L217.68-11.05 212.53-11.05Q210.08-11.05 208.25-11.88 206.43-12.7 205.41-14.3 204.38-15.9 204.38-18.2L204.38-18.2Q204.38-20.15 205.33-21.8 206.28-23.45 207.98-24.48 209.68-25.5 211.88-25.5L211.88-25.5 223.63-25.5 223.63-21.55 212.33-21.55Q210.78-21.55 209.88-20.6 208.98-19.65 208.98-18.35L208.98-18.35Q208.98-17.1 209.91-16.18 210.83-15.25 212.53-15.25L212.53-15.25 217.43-15.25Q220.18-15.25 222.06-14.38 223.93-13.5 224.91-11.85 225.88-10.2 225.88-7.8L225.88-7.8Q225.88-5.75 224.88-3.98 223.88-2.2 222.11-1.1 220.33 0 217.98 0L217.98 0ZM244.33 0L231.58 0 231.58-3.95 243.78-3.95Q244.98-3.95 245.85-4.48 246.73-5 247.18-5.85 247.63-6.7 247.63-7.65L247.63-7.65Q247.63-8.55 247.23-9.33 246.83-10.1 246-10.58 245.18-11.05 244.03-11.05L244.03-11.05 238.88-11.05Q236.43-11.05 234.6-11.88 232.78-12.7 231.75-14.3 230.73-15.9 230.73-18.2L230.73-18.2Q230.73-20.15 231.68-21.8 232.63-23.45 234.33-24.48 236.03-25.5 238.23-25.5L238.23-25.5 249.98-25.5 249.98-21.55 238.68-21.55Q237.13-21.55 236.23-20.6 235.33-19.65 235.33-18.35L235.33-18.35Q235.33-17.1 236.25-16.18 237.18-15.25 238.88-15.25L238.88-15.25 243.78-15.25Q246.53-15.25 248.4-14.38 250.28-13.5 251.25-11.85 252.23-10.2 252.23-7.8L252.23-7.8Q252.23-5.75 251.23-3.98 250.23-2.2 248.45-1.1 246.68 0 244.33 0L244.33 0ZM277.77 0L271.23 0Q267.02 0 263.77-1.58 260.52-3.15 258.7-6.03 256.88-8.9 256.88-12.75L256.88-12.75Q256.88-16.55 258.43-19.58 259.98-22.6 262.73-24.35 265.48-26.1 269.13-26.1L269.13-26.1Q273.07-26.1 275.7-24.4 278.32-22.7 279.63-19.83 280.93-16.95 280.93-13.4L280.93-13.4Q280.93-12.85 280.9-12.25 280.88-11.65 280.77-11.2L280.77-11.2 261.77-11.2Q262.02-8.85 263.32-7.23 264.63-5.6 266.65-4.78 268.68-3.95 271.13-3.95L271.13-3.95 277.77-3.95 277.77 0ZM261.73-14.45L261.73-14.45 276.27-14.45Q276.27-15.4 276.07-16.48 275.88-17.55 275.38-18.57 274.88-19.6 274.05-20.43 273.23-21.25 272-21.75 270.77-22.25 269.13-22.25L269.13-22.25Q267.38-22.25 266.05-21.58 264.73-20.9 263.77-19.78 262.82-18.65 262.32-17.25 261.82-15.85 261.73-14.45ZM301.47 0L295.47 0Q292.07 0 290.15-1.95 288.22-3.9 288.22-7.25L288.22-7.25 288.22-31.9 292.82-31.9 292.82-7.55Q292.82-5.9 293.75-4.93 294.67-3.95 296.32-3.95L296.32-3.95 301.47-3.95 301.47 0ZM301.57-21.55L283.82-21.55 283.82-25.5 301.57-25.5 301.57-21.55ZM337.12 0L334.77 0Q331.92 0 329.84-1.23 327.77-2.45 326.64-4.58 325.52-6.7 325.52-9.35L325.52-9.35 325.52-30.75 314.87-30.75 314.87-35 340.97-35 340.97-30.75 330.32-30.75 330.32-8.75Q330.32-6.8 331.54-5.53 332.77-4.25 334.82-4.25L334.82-4.25 337.12-4.25 337.12 0ZM343.22 0L338.62 0 338.62-18.25Q338.62-21.65 340.54-23.58 342.47-25.5 345.87-25.5L345.87-25.5 351.12-25.5 351.12-21.55 346.72-21.55Q345.06-21.55 344.14-20.6 343.22-19.65 343.22-17.95L343.22-17.95 343.22 0ZM365.96 0.6L365.96 0.6Q362.26 0.6 359.56-1.18 356.86-2.95 355.41-6 353.96-9.05 353.96-12.75L353.96-12.75Q353.96-16.5 355.56-19.53 357.16-22.55 360.16-24.33 363.16-26.1 367.36-26.1L367.36-26.1Q371.41-26.1 374.31-24.35 377.21-22.6 378.79-19.6 380.36-16.6 380.36-12.9L380.36-12.9 380.36 0 375.71 0 375.71-5.2 375.61-5.2Q374.86-3.75 373.59-2.43 372.31-1.1 370.41-0.25 368.51 0.6 365.96 0.6ZM367.16-3.35L367.16-3.35Q369.66-3.35 371.59-4.58 373.51-5.8 374.59-7.98 375.66-10.15 375.66-12.85L375.66-12.85Q375.66-15.5 374.64-17.6 373.61-19.7 371.71-20.93 369.81-22.15 367.26-22.15L367.26-22.15Q364.56-22.15 362.64-20.9 360.71-19.65 359.69-17.53 358.66-15.4 358.66-12.7L358.66-12.7Q358.66-10.1 359.66-7.98 360.66-5.85 362.56-4.6 364.46-3.35 367.16-3.35ZM403.01 0L400.01 0Q396.06 0 392.96-1.7 389.86-3.4 388.06-6.28 386.26-9.15 386.26-12.75L386.26-12.75Q386.26-16.35 388.06-19.23 389.86-22.1 392.96-23.8 396.06-25.5 400.01-25.5L400.01-25.5 403.01-25.5 403.01-21.55 399.86-21.55Q397.31-21.55 395.29-20.38 393.26-19.2 392.09-17.2 390.91-15.2 390.91-12.75L390.91-12.75Q390.91-10.3 392.09-8.3 393.26-6.3 395.29-5.13 397.31-3.95 399.86-3.95L399.86-3.95 403.01-3.95 403.01 0ZM412.86 0L408.26 0 408.26-36.5 412.86-36.5 412.86-14.8 419.86-14.8 426.56-25.5 431.66-25.5 424.41-14.1Q428.01-13.05 430.03-10.18 432.06-7.3 432.06-3.5L432.06-3.5 432.06 0 427.41 0 427.41-3.5Q427.41-5.6 426.48-7.25 425.56-8.9 423.91-9.88 422.26-10.85 420.11-10.85L420.11-10.85 412.86-10.85 412.86 0ZM458.11 0L451.56 0Q447.36 0 444.11-1.58 440.86-3.15 439.03-6.03 437.21-8.9 437.21-12.75L437.21-12.75Q437.21-16.55 438.76-19.58 440.31-22.6 443.06-24.35 445.81-26.1 449.46-26.1L449.46-26.1Q453.41-26.1 456.03-24.4 458.66-22.7 459.96-19.83 461.26-16.95 461.26-13.4L461.26-13.4Q461.26-12.85 461.23-12.25 461.21-11.65 461.11-11.2L461.11-11.2 442.11-11.2Q442.36-8.85 443.66-7.23 444.96-5.6 446.98-4.78 449.01-3.95 451.46-3.95L451.46-3.95 458.11-3.95 458.11 0ZM442.06-14.45L442.06-14.45 456.61-14.45Q456.61-15.4 456.41-16.48 456.21-17.55 455.71-18.57 455.21-19.6 454.38-20.43 453.56-21.25 452.33-21.75 451.11-22.25 449.46-22.25L449.46-22.25Q447.71-22.25 446.38-21.58 445.06-20.9 444.11-19.78 443.16-18.65 442.66-17.25 442.16-15.85 442.06-14.45ZM471.55 0L466.95 0 466.95-18.25Q466.95-21.65 468.88-23.58 470.8-25.5 474.2-25.5L474.2-25.5 479.45-25.5 479.45-21.55 475.05-21.55Q473.4-21.55 472.48-20.6 471.55-19.65 471.55-17.95L471.55-17.95 471.55 0Z" opacity="1" transform="matrix(1,0,0,1,0,0)" fill="#1d597d" class="slogan-text-1" data-fill-palette-color="secondary" id="text-1"></path></svg></g></svg></g></svg></g></svg></g><g transform="matrix(1,0,0,1,416.99361985702575,35.283055279833725)"><svg viewBox="0 0 175.99057919999998 118.29498103198499" height="118.29498103198499" width="175.99057919999998"><g><svg xmlns="http://www.w3.org/2000/svg" xmlns:xlink="http://www.w3.org/1999/xlink" version="1.1" x="0" y="0" viewBox="-345.76500000000004 275.279 99.42178716439025 66.82799999999997" enable-background="new -346 256 100 100" xml:space="preserve" height="118.29498103198499" width="175.99057919999998" class="icon-icon-0" data-fill-palette-color="accent" id="icon-0"><g fill="#1d597d" data-fill-palette-color="accent"><path d="M-251.339 331.136c-1.075-0.089-10.585-1.174-13.146-12.066-1.193-5.07-0.778-11.961-0.771-12.072 0.029-0.447-0.054-5.186-0.681-7.358-2.921-10.141-18.188-15.871-36.045-12.331-3.322 0.658-6.707 1.383-9.986 2.229 0.362 3.394 0.476 9.926-3.161 14.244-3.077 3.656-9.528 4.764-10.254 4.879-0.113 0.016-0.226 0.025-0.337 0.025-1.037 0-1.95-0.755-2.117-1.811-0.186-1.17 0.614-2.271 1.784-2.454 1.539-0.249 5.903-1.341 7.642-3.406 2.163-2.569 2.434-6.594 2.297-9.446-0.092-1.936-0.047-16.29-0.047-16.29l-8.137 6.194c-1.875-0.712-3.939-1.112-6.114-1.112-2.109 0-4.118 0.373-5.947 1.046l-7.168-6.016v11.439c-1.411 2.03-2.238 4.402-2.238 6.952 0 5.992 4.494 11.062 10.695 12.788-0.211 2.04 0.017 4.297 0.793 6.817 1.057 3.43 3.927 6.252 7.952 8.349v15.042c0 2.928 2.374 5.302 5.303 5.302 2.927 0 5.302-2.374 5.302-5.302v-11.63c5.116 0.897 10.841 1.051 16.618 0.36l-8.898 7.167c-2.28 1.838-2.64 5.175-0.803 7.456 1.048 1.299 2.583 1.976 4.132 1.976 1.167 0 2.343-0.384 3.323-1.173l15.905-12.812c0.08-0.063 0.138-0.138 0.212-0.207v8.78c0 2.929 2.375 5.302 5.301 5.302 2.928 0 5.303-2.373 5.303-5.302V322.9c4.018 14.116 16.391 18.641 22.565 19.025 0.116 0.008 0.229 0.012 0.344 0.012 2.811 0 5.155-2.177 5.361-5.021C-246.146 333.958-248.382 331.379-251.339 331.136z" fill="#1d597d" data-fill-palette-color="accent"></path></g></svg></g></svg></g></svg></g></svg></g><defs></defs></svg><rect width="395.52" height="125.97020133945732" fill="none" stroke="none" visibility="hidden"></rect></g></svg></g></svg>